# Blender 3.5.0
# www.blender.org
mtllib spheres.mtl
o Icosphere
v 0.000000 -1.000000 0.000000
v 0.723607 -0.447220 0.525725
v -0.276388 -0.447220 0.850649
v -0.894426 -0.447216 0.000000
v -0.276388 -0.447220 -0.850649
v 0.723607 -0.447220 -0.525725
v 0.276388 0.447220 0.850649
v -0.723607 0.447220 0.525725
v -0.723607 0.447220 -0.525725
v 0.276388 0.447220 -0.850649
v 0.894426 0.447216 0.000000
v 0.000000 1.000000 0.000000
v -0.162456 -0.850654 0.499995
v 0.425323 -0.850654 0.309011
v 0.262869 -0.525738 0.809012
v 0.850648 -0.525736 0.000000
v 0.425323 -0.850654 -0.309011
v -0.525730 -0.850652 0.000000
v -0.688189 -0.525736 0.499997
v -0.162456 -0.850654 -0.499995
v -0.688189 -0.525736 -0.499997
v 0.262869 -0.525738 -0.809012
v 0.951058 0.000000 0.309013
v 0.951058 0.000000 -0.309013
v 0.000000 0.000000 1.000000
v 0.587786 0.000000 0.809017
v -0.951058 0.000000 0.309013
v -0.587786 0.000000 0.809017
v -0.587786 0.000000 -0.809017
v -0.951058 0.000000 -0.309013
v 0.587786 0.000000 -0.809017
v 0.000000 0.000000 -1.000000
v 0.688189 0.525736 0.499997
v -0.262869 0.525738 0.809012
v -0.850648 0.525736 0.000000
v -0.262869 0.525738 -0.809012
v 0.688189 0.525736 -0.499997
v 0.162456 0.850654 0.499995
v 0.525730 0.850652 0.000000
v -0.425323 0.850654 0.309011
v -0.425323 0.850654 -0.309011
v 0.162456 0.850654 -0.499995
vn -0.0000 -1.0000 -0.0000
vn 0.4253 -0.8507 0.3090
vn -0.1625 -0.8507 0.5000
vn 0.7236 -0.4472 0.5257
vn 0.8506 -0.5257 -0.0000
vn -0.5257 -0.8507 -0.0000
vn -0.1625 -0.8507 -0.5000
vn 0.4253 -0.8507 -0.3090
vn 0.9511 -0.0000 0.3090
vn -0.2764 -0.4472 0.8506
vn 0.2629 -0.5257 0.8090
vn -0.0000 -0.0000 1.0000
vn -0.8944 -0.4472 -0.0000
vn -0.6882 -0.5257 0.5000
vn -0.9511 -0.0000 0.3090
vn -0.2764 -0.4472 -0.8506
vn -0.6882 -0.5257 -0.5000
vn -0.5878 -0.0000 -0.8090
vn 0.7236 -0.4472 -0.5257
vn 0.2629 -0.5257 -0.8090
vn 0.5878 -0.0000 -0.8090
vn 0.5878 -0.0000 0.8090
vn -0.5878 -0.0000 0.8090
vn -0.9511 -0.0000 -0.3090
vn -0.0000 -0.0000 -1.0000
vn 0.9511 -0.0000 -0.3090
vn 0.2764 0.4472 0.8506
vn 0.6882 0.5257 0.5000
vn 0.1625 0.8507 0.5000
vn -0.7236 0.4472 0.5257
vn -0.2629 0.5257 0.8090
vn -0.4253 0.8507 0.3090
vn -0.7236 0.4472 -0.5257
vn -0.8506 0.5257 -0.0000
vn -0.4253 0.8507 -0.3090
vn 0.2764 0.4472 -0.8506
vn -0.2629 0.5257 -0.8090
vn 0.1625 0.8507 -0.5000
vn 0.8944 0.4472 -0.0000
vn 0.6882 0.5257 -0.5000
vn 0.5257 0.8507 -0.0000
vn -0.0000 1.0000 -0.0000
vt 0.181819 0.000000
vt 0.909091 0.000000
vt 0.727273 0.000000
vt 0.545455 0.000000
vt 0.363637 0.000000
vt 0.272728 0.157461
vt 1.000000 0.157461
vt 0.090910 0.157461
vt 0.818182 0.157461
vt 0.636364 0.157461
vt 0.454546 0.157461
vt 0.181819 0.314921
vt 0.000000 0.314921
vt 0.909091 0.314921
vt 0.727273 0.314921
vt 0.545455 0.314921
vt 0.363637 0.314921
vt 0.454546 0.472382
vt 0.636364 0.472382
vt 0.818182 0.472382
vt 0.090910 0.472382
vt 0.272728 0.472382
vt 0.954545 0.078731
vt 0.136365 0.078731
vt 0.318182 0.078731
vt 0.227273 0.078731
vt 0.181819 0.157461
vt 0.363637 0.157461
vt 0.500000 0.078731
vt 0.409092 0.078731
vt 0.772727 0.078731
vt 0.863636 0.078731
vt 0.909091 0.157461
vt 0.590909 0.078731
vt 0.681818 0.078731
vt 0.727273 0.157461
vt 0.545455 0.157461
vt 0.318182 0.236191
vt 0.409092 0.236191
vt 0.136365 0.236191
vt 0.227273 0.236191
vt 0.863636 0.236191
vt 0.045455 0.236191
vt 0.954545 0.236191
vt 0.681818 0.236191
vt 0.772727 0.236191
vt 0.500000 0.236191
vt 0.590909 0.236191
vt 0.272728 0.314921
vt 0.090910 0.314921
vt 0.818182 0.314921
vt 0.636364 0.314921
vt 0.454546 0.314921
vt 0.136365 0.393651
vt 0.227273 0.393651
vt 0.409092 0.393651
vt 0.318182 0.393651
vt 0.863636 0.393651
vt 0.045455 0.393651
vt 0.681818 0.393651
vt 0.772727 0.393651
vt 0.500000 0.393651
vt 0.590909 0.393651
s 1
f 1/1/1 14/26/2 13/24/3
f 2/6/4 14/25/2 16/28/5
f 1/2/1 13/23/3 18/32/6
f 1/3/1 18/31/6 20/35/7
f 1/4/1 20/34/7 17/29/8
f 2/6/4 16/28/5 23/38/9
f 3/8/10 15/27/11 25/40/12
f 4/9/13 19/33/14 27/42/15
f 5/10/16 21/36/17 29/45/18
f 6/11/19 22/37/20 31/47/21
f 2/6/4 23/38/9 26/41/22
f 3/8/10 25/40/12 28/43/23
f 4/9/13 27/42/15 30/46/24
f 5/10/16 29/45/18 32/48/25
f 6/11/19 31/47/21 24/39/26
f 7/12/27 33/49/28 38/55/29
f 8/13/30 34/50/31 40/59/32
f 9/15/33 35/51/34 41/61/35
f 10/16/36 36/52/37 42/63/38
f 11/17/39 37/53/40 39/56/41
f 39/56/41 42/62/38 12/18/42
f 39/56/41 37/53/40 42/62/38
f 37/53/40 10/16/36 42/62/38
f 42/63/38 41/60/35 12/19/42
f 42/63/38 36/52/37 41/60/35
f 36/52/37 9/15/33 41/60/35
f 41/61/35 40/58/32 12/20/42
f 41/61/35 35/51/34 40/58/32
f 35/51/34 8/14/30 40/58/32
f 40/59/32 38/54/29 12/21/42
f 40/59/32 34/50/31 38/54/29
f 34/50/31 7/12/27 38/54/29
f 38/55/29 39/57/41 12/22/42
f 38/55/29 33/49/28 39/57/41
f 33/49/28 11/17/39 39/57/41
f 24/39/26 37/53/40 11/17/39
f 24/39/26 31/47/21 37/53/40
f 31/47/21 10/16/36 37/53/40
f 32/48/25 36/52/37 10/16/36
f 32/48/25 29/45/18 36/52/37
f 29/45/18 9/15/33 36/52/37
f 30/46/24 35/51/34 9/15/33
f 30/46/24 27/42/15 35/51/34
f 27/42/15 8/14/30 35/51/34
f 28/43/23 34/50/31 8/13/30
f 28/43/23 25/40/12 34/50/31
f 25/40/12 7/12/27 34/50/31
f 26/41/22 33/49/28 7/12/27
f 26/41/22 23/38/9 33/49/28
f 23/38/9 11/17/39 33/49/28
f 31/47/21 32/48/25 10/16/36
f 31/47/21 22/37/20 32/48/25
f 22/37/20 5/10/16 32/48/25
f 29/45/18 30/46/24 9/15/33
f 29/45/18 21/36/17 30/46/24
f 21/36/17 4/9/13 30/46/24
f 27/42/15 28/44/23 8/14/30
f 27/42/15 19/33/14 28/44/23
f 19/33/14 3/7/10 28/44/23
f 25/40/12 26/41/22 7/12/27
f 25/40/12 15/27/11 26/41/22
f 15/27/11 2/6/4 26/41/22
f 23/38/9 24/39/26 11/17/39
f 23/38/9 16/28/5 24/39/26
f 16/28/5 6/11/19 24/39/26
f 17/29/8 22/37/20 6/11/19
f 17/29/8 20/34/7 22/37/20
f 20/34/7 5/10/16 22/37/20
f 20/35/7 21/36/17 5/10/16
f 20/35/7 18/31/6 21/36/17
f 18/31/6 4/9/13 21/36/17
f 18/32/6 19/33/14 4/9/13
f 18/32/6 13/23/3 19/33/14
f 13/23/3 3/7/10 19/33/14
f 16/28/5 17/30/8 6/11/19
f 16/28/5 14/25/2 17/30/8
f 14/25/2 1/5/1 17/30/8
f 13/24/3 15/27/11 3/8/10
f 13/24/3 14/26/2 15/27/11
f 14/26/2 2/6/4 15/27/11
o Icosphere.001
v -2.375041 -1.000000 0.000000
v -1.651433 -0.447220 0.525725
v -2.651428 -0.447220 0.850649
v -3.269467 -0.447216 0.000000
v -2.651428 -0.447220 -0.850649
v -1.651433 -0.447220 -0.525725
v -2.098653 0.447220 0.850649
v -3.098648 0.447220 0.525725
v -3.098648 0.447220 -0.525725
v -2.098653 0.447220 -0.850649
v -1.480614 0.447216 0.000000
v -2.375041 1.000000 0.000000
v -2.537496 -0.850654 0.499995
v -1.949718 -0.850654 0.309011
v -2.112172 -0.525738 0.809012
v -1.524393 -0.525736 0.000000
v -1.949718 -0.850654 -0.309011
v -2.900770 -0.850652 0.000000
v -3.063230 -0.525736 0.499997
v -2.537496 -0.850654 -0.499995
v -3.063230 -0.525736 -0.499997
v -2.112172 -0.525738 -0.809012
v -1.423983 0.000000 0.309013
v -1.423983 0.000000 -0.309013
v -2.375041 0.000000 1.000000
v -1.787255 0.000000 0.809017
v -3.326098 0.000000 0.309013
v -2.962826 0.000000 0.809017
v -2.962826 0.000000 -0.809017
v -3.326098 0.000000 -0.309013
v -1.787255 0.000000 -0.809017
v -2.375041 0.000000 -1.000000
v -1.686851 0.525736 0.499997
v -2.637909 0.525738 0.809012
v -3.225688 0.525736 0.000000
v -2.637909 0.525738 -0.809012
v -1.686851 0.525736 -0.499997
v -2.212585 0.850654 0.499995
v -1.849311 0.850652 0.000000
v -2.800363 0.850654 0.309011
v -2.800363 0.850654 -0.309011
v -2.212585 0.850654 -0.499995
vn -0.0000 -1.0000 -0.0000
vn 0.4253 -0.8507 0.3090
vn -0.1625 -0.8507 0.5000
vn 0.7236 -0.4472 0.5257
vn 0.8506 -0.5257 -0.0000
vn -0.5257 -0.8507 -0.0000
vn -0.1625 -0.8507 -0.5000
vn 0.4253 -0.8507 -0.3090
vn 0.9511 -0.0000 0.3090
vn -0.2764 -0.4472 0.8506
vn 0.2629 -0.5257 0.8090
vn -0.0000 -0.0000 1.0000
vn -0.8944 -0.4472 -0.0000
vn -0.6882 -0.5257 0.5000
vn -0.9511 -0.0000 0.3090
vn -0.2764 -0.4472 -0.8506
vn -0.6882 -0.5257 -0.5000
vn -0.5878 -0.0000 -0.8090
vn 0.7236 -0.4472 -0.5257
vn 0.2629 -0.5257 -0.8090
vn 0.5878 -0.0000 -0.8090
vn 0.5878 -0.0000 0.8090
vn -0.5878 -0.0000 0.8090
vn -0.9511 -0.0000 -0.3090
vn -0.0000 -0.0000 -1.0000
vn 0.9511 -0.0000 -0.3090
vn 0.2764 0.4472 0.8506
vn 0.6882 0.5257 0.5000
vn 0.1625 0.8507 0.5000
vn -0.7236 0.4472 0.5257
vn -0.2629 0.5257 0.8090
vn -0.4253 0.8507 0.3090
vn -0.7236 0.4472 -0.5257
vn -0.8506 0.5257 -0.0000
vn -0.4253 0.8507 -0.3090
vn 0.2764 0.4472 -0.8506
vn -0.2629 0.5257 -0.8090
vn 0.1625 0.8507 -0.5000
vn 0.8944 0.4472 -0.0000
vn 0.6882 0.5257 -0.5000
vn 0.5257 0.8507 -0.0000
vn -0.0000 1.0000 -0.0000
vt 0.181819 0.000000
vt 0.909091 0.000000
vt 0.727273 0.000000
vt 0.545455 0.000000
vt 0.363637 0.000000
vt 0.272728 0.157461
vt 1.000000 0.157461
vt 0.090910 0.157461
vt 0.818182 0.157461
vt 0.636364 0.157461
vt 0.454546 0.157461
vt 0.181819 0.314921
vt 0.000000 0.314921
vt 0.909091 0.314921
vt 0.727273 0.314921
vt 0.545455 0.314921
vt 0.363637 0.314921
vt 0.454546 0.472382
vt 0.636364 0.472382
vt 0.818182 0.472382
vt 0.090910 0.472382
vt 0.272728 0.472382
vt 0.954545 0.078731
vt 0.136365 0.078731
vt 0.318182 0.078731
vt 0.227273 0.078731
vt 0.181819 0.157461
vt 0.363637 0.157461
vt 0.500000 0.078731
vt 0.409092 0.078731
vt 0.772727 0.078731
vt 0.863636 0.078731
vt 0.909091 0.157461
vt 0.590909 0.078731
vt 0.681818 0.078731
vt 0.727273 0.157461
vt 0.545455 0.157461
vt 0.318182 0.236191
vt 0.409092 0.236191
vt 0.136365 0.236191
vt 0.227273 0.236191
vt 0.863636 0.236191
vt 0.045455 0.236191
vt 0.954545 0.236191
vt 0.681818 0.236191
vt 0.772727 0.236191
vt 0.500000 0.236191
vt 0.590909 0.236191
vt 0.272728 0.314921
vt 0.090910 0.314921
vt 0.818182 0.314921
vt 0.636364 0.314921
vt 0.454546 0.314921
vt 0.136365 0.393651
vt 0.227273 0.393651
vt 0.409092 0.393651
vt 0.318182 0.393651
vt 0.863636 0.393651
vt 0.045455 0.393651
vt 0.681818 0.393651
vt 0.772727 0.393651
vt 0.500000 0.393651
vt 0.590909 0.393651
s 1
f 43/64/43 56/89/44 55/87/45
f 44/69/46 56/88/44 58/91/47
f 43/65/43 55/86/45 60/95/48
f 43/66/43 60/94/48 62/98/49
f 43/67/43 62/97/49 59/92/50
f 44/69/46 58/91/47 65/101/51
f 45/71/52 57/90/53 67/103/54
f 46/72/55 61/96/56 69/105/57
f 47/73/58 63/99/59 71/108/60
f 48/74/61 64/100/62 73/110/63
f 44/69/46 65/101/51 68/104/64
f 45/71/52 67/103/54 70/106/65
f 46/72/55 69/105/57 72/109/66
f 47/73/58 71/108/60 74/111/67
f 48/74/61 73/110/63 66/102/68
f 49/75/69 75/112/70 80/118/71
f 50/76/72 76/113/73 82/122/74
f 51/78/75 77/114/76 83/124/77
f 52/79/78 78/115/79 84/126/80
f 53/80/81 79/116/82 81/119/83
f 81/119/83 84/125/80 54/81/84
f 81/119/83 79/116/82 84/125/80
f 79/116/82 52/79/78 84/125/80
f 84/126/80 83/123/77 54/82/84
f 84/126/80 78/115/79 83/123/77
f 78/115/79 51/78/75 83/123/77
f 83/124/77 82/121/74 54/83/84
f 83/124/77 77/114/76 82/121/74
f 77/114/76 50/77/72 82/121/74
f 82/122/74 80/117/71 54/84/84
f 82/122/74 76/113/73 80/117/71
f 76/113/73 49/75/69 80/117/71
f 80/118/71 81/120/83 54/85/84
f 80/118/71 75/112/70 81/120/83
f 75/112/70 53/80/81 81/120/83
f 66/102/68 79/116/82 53/80/81
f 66/102/68 73/110/63 79/116/82
f 73/110/63 52/79/78 79/116/82
f 74/111/67 78/115/79 52/79/78
f 74/111/67 71/108/60 78/115/79
f 71/108/60 51/78/75 78/115/79
f 72/109/66 77/114/76 51/78/75
f 72/109/66 69/105/57 77/114/76
f 69/105/57 50/77/72 77/114/76
f 70/106/65 76/113/73 50/76/72
f 70/106/65 67/103/54 76/113/73
f 67/103/54 49/75/69 76/113/73
f 68/104/64 75/112/70 49/75/69
f 68/104/64 65/101/51 75/112/70
f 65/101/51 53/80/81 75/112/70
f 73/110/63 74/111/67 52/79/78
f 73/110/63 64/100/62 74/111/67
f 64/100/62 47/73/58 74/111/67
f 71/108/60 72/109/66 51/78/75
f 71/108/60 63/99/59 72/109/66
f 63/99/59 46/72/55 72/109/66
f 69/105/57 70/107/65 50/77/72
f 69/105/57 61/96/56 70/107/65
f 61/96/56 45/70/52 70/107/65
f 67/103/54 68/104/64 49/75/69
f 67/103/54 57/90/53 68/104/64
f 57/90/53 44/69/46 68/104/64
f 65/101/51 66/102/68 53/80/81
f 65/101/51 58/91/47 66/102/68
f 58/91/47 48/74/61 66/102/68
f 59/92/50 64/100/62 48/74/61
f 59/92/50 62/97/49 64/100/62
f 62/97/49 47/73/58 64/100/62
f 62/98/49 63/99/59 47/73/58
f 62/98/49 60/94/48 63/99/59
f 60/94/48 46/72/55 63/99/59
f 60/95/48 61/96/56 46/72/55
f 60/95/48 55/86/45 61/96/56
f 55/86/45 45/70/52 61/96/56
f 58/91/47 59/93/50 48/74/61
f 58/91/47 56/88/44 59/93/50
f 56/88/44 43/68/43 59/93/50
f 55/87/45 57/90/53 45/71/52
f 55/87/45 56/89/44 57/90/53
f 56/89/44 44/69/46 57/90/53
o Icosphere.002
v 2.243994 -1.000000 0.000000
v 2.967602 -0.447220 0.525725
v 1.967606 -0.447220 0.850649
v 1.349568 -0.447216 0.000000
v 1.967606 -0.447220 -0.850649
v 2.967602 -0.447220 -0.525725
v 2.520382 0.447220 0.850649
v 1.520387 0.447220 0.525725
v 1.520387 0.447220 -0.525725
v 2.520382 0.447220 -0.850649
v 3.138421 0.447216 0.000000
v 2.243994 1.000000 0.000000
v 2.081539 -0.850654 0.499995
v 2.669317 -0.850654 0.309011
v 2.506863 -0.525738 0.809012
v 3.094642 -0.525736 0.000000
v 2.669317 -0.850654 -0.309011
v 1.718264 -0.850652 0.000000
v 1.555805 -0.525736 0.499997
v 2.081539 -0.850654 -0.499995
v 1.555805 -0.525736 -0.499997
v 2.506863 -0.525738 -0.809012
v 3.195052 0.000000 0.309013
v 3.195052 0.000000 -0.309013
v 2.243994 0.000000 1.000000
v 2.831780 0.000000 0.809017
v 1.292936 0.000000 0.309013
v 1.656209 0.000000 0.809017
v 1.656209 0.000000 -0.809017
v 1.292936 0.000000 -0.309013
v 2.831780 0.000000 -0.809017
v 2.243994 0.000000 -1.000000
v 2.932184 0.525736 0.499997
v 1.981125 0.525738 0.809012
v 1.393346 0.525736 0.000000
v 1.981125 0.525738 -0.809012
v 2.932184 0.525736 -0.499997
v 2.406450 0.850654 0.499995
v 2.769724 0.850652 0.000000
v 1.818672 0.850654 0.309011
v 1.818672 0.850654 -0.309011
v 2.406450 0.850654 -0.499995
vn -0.0000 -1.0000 -0.0000
vn 0.4253 -0.8507 0.3090
vn -0.1625 -0.8507 0.5000
vn 0.7236 -0.4472 0.5257
vn 0.8506 -0.5257 -0.0000
vn -0.5257 -0.8507 -0.0000
vn -0.1625 -0.8507 -0.5000
vn 0.4253 -0.8507 -0.3090
vn 0.9511 -0.0000 0.3090
vn -0.2764 -0.4472 0.8506
vn 0.2629 -0.5257 0.8090
vn -0.0000 -0.0000 1.0000
vn -0.8944 -0.4472 -0.0000
vn -0.6882 -0.5257 0.5000
vn -0.9511 -0.0000 0.3090
vn -0.2764 -0.4472 -0.8506
vn -0.6882 -0.5257 -0.5000
vn -0.5878 -0.0000 -0.8090
vn 0.7236 -0.4472 -0.5257
vn 0.2629 -0.5257 -0.8090
vn 0.5878 -0.0000 -0.8090
vn 0.5878 -0.0000 0.8090
vn -0.5878 -0.0000 0.8090
vn -0.9511 -0.0000 -0.3090
vn -0.0000 -0.0000 -1.0000
vn 0.9511 -0.0000 -0.3090
vn 0.2764 0.4472 0.8506
vn 0.6882 0.5257 0.5000
vn 0.1625 0.8507 0.5000
vn -0.7236 0.4472 0.5257
vn -0.2629 0.5257 0.8090
vn -0.4253 0.8507 0.3090
vn -0.7236 0.4472 -0.5257
vn -0.8506 0.5257 -0.0000
vn -0.4253 0.8507 -0.3090
vn 0.2764 0.4472 -0.8506
vn -0.2629 0.5257 -0.8090
vn 0.1625 0.8507 -0.5000
vn 0.8944 0.4472 -0.0000
vn 0.6882 0.5257 -0.5000
vn 0.5257 0.8507 -0.0000
vn -0.0000 1.0000 -0.0000
vt 0.181819 0.000000
vt 0.909091 0.000000
vt 0.727273 0.000000
vt 0.545455 0.000000
vt 0.363637 0.000000
vt 0.272728 0.157461
vt 1.000000 0.157461
vt 0.090910 0.157461
vt 0.818182 0.157461
vt 0.636364 0.157461
vt 0.454546 0.157461
vt 0.181819 0.314921
vt 0.000000 0.314921
vt 0.909091 0.314921
vt 0.727273 0.314921
vt 0.545455 0.314921
vt 0.363637 0.314921
vt 0.454546 0.472382
vt 0.636364 0.472382
vt 0.818182 0.472382
vt 0.090910 0.472382
vt 0.272728 0.472382
vt 0.954545 0.078731
vt 0.136365 0.078731
vt 0.318182 0.078731
vt 0.227273 0.078731
vt 0.181819 0.157461
vt 0.363637 0.157461
vt 0.500000 0.078731
vt 0.409092 0.078731
vt 0.772727 0.078731
vt 0.863636 0.078731
vt 0.909091 0.157461
vt 0.590909 0.078731
vt 0.681818 0.078731
vt 0.727273 0.157461
vt 0.545455 0.157461
vt 0.318182 0.236191
vt 0.409092 0.236191
vt 0.136365 0.236191
vt 0.227273 0.236191
vt 0.863636 0.236191
vt 0.045455 0.236191
vt 0.954545 0.236191
vt 0.681818 0.236191
vt 0.772727 0.236191
vt 0.500000 0.236191
vt 0.590909 0.236191
vt 0.272728 0.314921
vt 0.090910 0.314921
vt 0.818182 0.314921
vt 0.636364 0.314921
vt 0.454546 0.314921
vt 0.136365 0.393651
vt 0.227273 0.393651
vt 0.409092 0.393651
vt 0.318182 0.393651
vt 0.863636 0.393651
vt 0.045455 0.393651
vt 0.681818 0.393651
vt 0.772727 0.393651
vt 0.500000 0.393651
vt 0.590909 0.393651
s 1
f 85/127/85 98/152/86 97/150/87
f 86/132/88 98/151/86 100/154/89
f 85/128/85 97/149/87 102/158/90
f 85/129/85 102/157/90 104/161/91
f 85/130/85 104/160/91 101/155/92
f 86/132/88 100/154/89 107/164/93
f 87/134/94 99/153/95 109/166/96
f 88/135/97 103/159/98 111/168/99
f 89/136/100 105/162/101 113/171/102
f 90/137/103 106/163/104 115/173/105
f 86/132/88 107/164/93 110/167/106
f 87/134/94 109/166/96 112/169/107
f 88/135/97 111/168/99 114/172/108
f 89/136/100 113/171/102 116/174/109
f 90/137/103 115/173/105 108/165/110
f 91/138/111 117/175/112 122/181/113
f 92/139/114 118/176/115 124/185/116
f 93/141/117 119/177/118 125/187/119
f 94/142/120 120/178/121 126/189/122
f 95/143/123 121/179/124 123/182/125
f 123/182/125 126/188/122 96/144/126
f 123/182/125 121/179/124 126/188/122
f 121/179/124 94/142/120 126/188/122
f 126/189/122 125/186/119 96/145/126
f 126/189/122 120/178/121 125/186/119
f 120/178/121 93/141/117 125/186/119
f 125/187/119 124/184/116 96/146/126
f 125/187/119 119/177/118 124/184/116
f 119/177/118 92/140/114 124/184/116
f 124/185/116 122/180/113 96/147/126
f 124/185/116 118/176/115 122/180/113
f 118/176/115 91/138/111 122/180/113
f 122/181/113 123/183/125 96/148/126
f 122/181/113 117/175/112 123/183/125
f 117/175/112 95/143/123 123/183/125
f 108/165/110 121/179/124 95/143/123
f 108/165/110 115/173/105 121/179/124
f 115/173/105 94/142/120 121/179/124
f 116/174/109 120/178/121 94/142/120
f 116/174/109 113/171/102 120/178/121
f 113/171/102 93/141/117 120/178/121
f 114/172/108 119/177/118 93/141/117
f 114/172/108 111/168/99 119/177/118
f 111/168/99 92/140/114 119/177/118
f 112/169/107 118/176/115 92/139/114
f 112/169/107 109/166/96 118/176/115
f 109/166/96 91/138/111 118/176/115
f 110/167/106 117/175/112 91/138/111
f 110/167/106 107/164/93 117/175/112
f 107/164/93 95/143/123 117/175/112
f 115/173/105 116/174/109 94/142/120
f 115/173/105 106/163/104 116/174/109
f 106/163/104 89/136/100 116/174/109
f 113/171/102 114/172/108 93/141/117
f 113/171/102 105/162/101 114/172/108
f 105/162/101 88/135/97 114/172/108
f 111/168/99 112/170/107 92/140/114
f 111/168/99 103/159/98 112/170/107
f 103/159/98 87/133/94 112/170/107
f 109/166/96 110/167/106 91/138/111
f 109/166/96 99/153/95 110/167/106
f 99/153/95 86/132/88 110/167/106
f 107/164/93 108/165/110 95/143/123
f 107/164/93 100/154/89 108/165/110
f 100/154/89 90/137/103 108/165/110
f 101/155/92 106/163/104 90/137/103
f 101/155/92 104/160/91 106/163/104
f 104/160/91 89/136/100 106/163/104
f 104/161/91 105/162/101 89/136/100
f 104/161/91 102/157/90 105/162/101
f 102/157/90 88/135/97 105/162/101
f 102/158/90 103/159/98 88/135/97
f 102/158/90 97/149/87 103/159/98
f 97/149/87 87/133/94 103/159/98
f 100/154/89 101/156/92 90/137/103
f 100/154/89 98/151/86 101/156/92
f 98/151/86 85/131/85 101/156/92
f 97/150/87 99/153/95 87/134/94
f 97/150/87 98/152/86 99/153/95
f 98/152/86 86/132/88 99/153/95
